{"title":"Metallimania (1997) DVDRip x264 AAC peaSoup","uid":10822980,"size":1934320346,"categoryP":"video","categoryS":"music_videos","magnet":"?xt=urn:btih:833ee53601846e025532f572a7e4445ad709c786&amp;dn=Metallimania+%281997%29+DVDRip+x264+AAC+peaSoup&amp;tr=udp%3A%2F%2Ftracker.openbittorrent.com%3A80&amp;tr=udp%3A%2F%2Fopen.demonii.com%3A1337&amp;tr=udp%3A%2F%2Ftracker.coppersurfer.tk%3A6969&amp;tr=udp%3A%2F%2Fexodus.desync.com%3A6969","seeders":1,"leechers":0,"uploader":"peaSoup","files":-1,"time":1408555148,"description":"Storyline\n\nThe wackiest, most dangerous, and drunkest rock and roll documentary ever made! Over 100 minutes of ridiculous debauchery with heavy metal's all time kings and their legion of maniacal fans. Whether you love, hate, or could give a crap about Metallica, this film will have you passed out in the bushes!                        &lt;a href=&quot; http://i.imgur.com/PBETWc4.jpg&quot; rel=&quot;nofollow&quot; target=&quot;_NEW&quot;&gt; http://i.imgur.com/PBETWc4.jpg&lt;/a&gt;                                                       \nFormat                                   : MPEG-4\nFormat profile                           : Base Media / Version 2\nCodec ID                                 : mp42\nFile size                                : 1.80 GiB\nDuration                                 : 1h 48mn\nOverall bit rate mode                    : Variable\nOverall bit rate                         : 2 374 Kbps\nMovie name                               : Metallimania (1997) DVDRip x264 AAC peaSoup\n\n\nVideo\nID                                       : 1\nFormat                                   : AVC\nFormat/Info                              : Advanced Video Codec\nFormat profile                           : &lt;a class=&quot;__cf_email__&quot; href=&quot;/cdn-cgi/l/email-protection&quot; data-cfemail=&quot;b4f9d5dddaf4f8879a84&quot;&gt;[email&amp;#160;protected]&lt;/a&gt;&lt;script cf-hash='f9e31' type=&quot;text/javascript&quot;&gt;\n/* &lt;![CDATA[ */!function(){try{var t=&quot;currentScript&quot;in document?document.currentScript:function(){for(var t=document.getElementsByTagName(&quot;script&quot;),e=t.length;e--;)if(t[e].getAttribute(&quot;cf-hash&quot;))return t[e]}();if(t&amp;&amp;t.previousSibling){var e,r,n,i,c=t.previousSibling,a=c.getAttribute(&quot;data-cfemail&quot;);if(a){for(e=&quot;&quot;,r=parseInt(a.substr(0,2),16),n=2;a.length-n;n+=2)i=parseInt(a.substr(n,2),16)^r,e+=String.fromCharCode(i);e=document.createTextNode(e),c.parentNode.replaceChild(e,c)}}}catch(u){}}();/* ]]&gt; */&lt;/script&gt;\nFormat settings, CABAC                   : Yes\nFormat settings, ReFrames                : 1 frame\nCodec ID                                 : avc1\nCodec ID/Info                            : Advanced Video Coding\nDuration                                 : 1h 48mn\nBit rate                                 : 2 242 Kbps\nWidth                                    : 624 pixels\nHeight                                   : 480 pixels\nDisplay aspect ratio                     : 4:3\nFrame rate mode                          : Constant\nFrame rate                               : 29.970 fps\nColor space                              : YUV\nChroma subsampling                       : 4:2:0\nBit depth                                : 8 bits\nScan type                                : Progressive\nBits/(Pixel*Frame)                       : 0.250\nStream size                              : 1.70 GiB (94%)\nWriting library                          : x264 core\nEncoded date                             : UTC 2014-08-20 14:37:23\nTagged date                              : UTC 2014-08-20 15:00:48\nColor primaries                          : BT.601 NTSC\nTransfer characteristics                 : BT.709\nMatrix coefficients                      : BT.601\n\nAudio\nID                                       : 2\nFormat                                   : AAC\nFormat/Info                              : Advanced Audio Codec\nFormat profile                           : LC\nCodec ID                                 : 40\nDuration                                 : 1h 48mn\nBit rate mode                            : Variable\nBit rate                                 : 128 Kbps\nMaximum bit rate                         : 179 Kbps\nChannel(s)                               : 2 channels\nChannel positions                        : Front: L R\nSampling rate                            : 48.0 KHz\nCompression mode                         : Lossy\nStream size                              : 99.4 MiB (5%)\nLanguage                                 : English\nEncoded date                             : UTC 2014-08-20 14:37:23\nTagged date                              : UTC 2014-08-20 15:00:33\n\nMenu\nID                                       : 3\nCodec ID                                 : text\nDuration                                 : 1h 48mn\nEncoded date                             : UTC 2014-08-20 14:37:23\nTagged date                              : UTC 2014-08-20 15:00:52\nBit rate mode                            : CBR","torrent":{"xt":"urn:btih:833ee53601846e025532f572a7e4445ad709c786","amp;dn":"Metallimania+%281997%29+DVDRip+x264+AAC+peaSoup","amp;tr":["udp%3A%2F%2Ftracker.openbittorrent.com%3A80","udp%3A%2F%2Fopen.demonii.com%3A1337","udp%3A%2F%2Ftracker.coppersurfer.tk%3A6969","udp%3A%2F%2Fexodus.desync.com%3A6969"],"infoHash":"833ee53601846e025532f572a7e4445ad709c786","infoHashBuffer":{"type":"Buffer","data":[131,62,229,54,1,132,110,2,85,50,245,114,167,228,68,90,215,9,199,134]},"announce":[],"urlList":[]}}